<?xml version="1.0" encoding="utf-8"?>
<!-- Generator: Adobe Illustrator 22.0.1, SVG Export Plug-In . SVG Version: 6.00 Build 0)  -->
<svg version="1.1" id="Layer_1" xmlns="http://www.w3.org/2000/svg" xmlns:xlink="http://www.w3.org/1999/xlink" x="0px" y="0px"
	 viewBox="0 0 105 130" style="enable-background:new 0 0 105 130;" xml:space="preserve">
<style type="text/css">
	.st0{fill:#6A6A6A;}
</style>
<g id="KSIiM8.tif">
	<g>
		<path class="st0" d="M60.6,76.7c-12.6,0-25.2,0-37.8,0c-4.9,0-5.9-0.7-5.5-5.4c0.4-4.7-1.4-7-5.7-8.3c-3.3-1-6.5-2.5-9.7-3.8
			c-2.3-0.9-2.7-2.5-1.8-4.7c0.9-2.2,2.5-2.6,4.5-1.9c3.1,1.1,6.1,2.3,9.1,3.5c2.3,0.9,3.4,0,3.4-2.2c0.1-2.9,0-5.9,0.1-8.8
			c0-4.2,0.5-4.7,4.7-4.7c24,0,48,0,72,0c1.8,0,3.7-0.1,5.5-0.2c3.5-0.1,4.5,0.8,4.5,4.3c0.1,9.1,0.1,18.2,0,27.4
			c0,3.9-0.9,4.6-5,4.7C86.2,76.7,73.4,76.7,60.6,76.7z"/>
		<path class="st0" d="M61,99.9c12.6,0,25.2,0,37.8,0c4.7,0,5.3,0.6,5.3,5.2c0,3.1,0,6.3-0.1,9.4c0,1.8-0.5,3.4-2.7,3.9
			c-2.1,0.4-2.2,2.1-2.2,3.8c0,1.7-0.2,3.5-2.4,3.5c-2.2,0-2.6-1.7-2.5-3.5c0.2-3.1-1.4-3.9-4.2-3.9c-19.5,0.1-39.1,0.1-58.6,0
			c-2.9,0-4.3,0.9-4.1,3.9c0.1,1.8-0.4,3.4-2.6,3.4c-2.1,0-2.6-1.7-2.6-3.4c0-2.1-0.5-3.5-2.9-4c-1.7-0.4-1.8-2-1.9-3.4
			c0-3.1,0-6.3,0-9.4c0-4.9,0.6-5.5,5.4-5.5C35.4,99.9,48.2,99.9,61,99.9z M60,106.9c1.9,0,3.9,0,5.8,0c1.2,0,2.2-0.3,2.1-1.8
			c0-1.3-0.9-1.6-2-1.6c-4,0-8,0-11.9,0c-1.1,0-1.9,0.3-2,1.6c0,1.5,0.9,1.8,2.1,1.8C56.2,107,58.1,106.9,60,106.9z"/>
		<path class="st0" d="M60.5,97.2c-12.9,0-25.8,0-38.7,0c-3.3,0-4.5-1-4.6-4.4c-0.1-2.7,0-5.4,0-8.1c0-5.3,0.8-6.1,6-6.1
			c15.8,0,31.7,0,47.5,0c9.1,0,18.2,0,27.3,0c5.2,0,6,0.9,6,6.1c0,2.3,0,4.6,0,6.8c0,4.8-0.7,5.5-5.4,5.5c-12.7,0-25.4,0-38.1,0
			C60.5,97.1,60.5,97.2,60.5,97.2z M60.1,82.5c-1.9,0-3.9,0-5.8,0c-1,0-2.1,0.1-2.1,1.4c-0.1,1.3,0.9,1.6,2,1.6c3.9,0,7.7,0,11.6,0
			c1,0,2.1-0.1,2.1-1.4c0-1.5-1.2-1.6-2.3-1.6C63.8,82.5,61.9,82.5,60.1,82.5z"/>
		<path class="st0" d="M60.2,37c-12.8,0-25.6,0-38.4,0c-4,0-4.5-0.5-4.5-4.5c0-5.1,0-10.2,0-15.3c0-2.8,0.9-4.2,4-4.2
			c11.7,0.1,23.4,0,35.2,0c1.6,0,3,0.1,3.5,2c0.4,1.5,1.8,1.3,3,1.3c5.3,0,10.6,0,16,0c2.6,0,4.7,0.7,4.6,3.7
			c-0.1,2.8-2.2,3.4-4.6,3.3c-5-0.1-10,0-15,0c-2.2,0-4.1,0.5-4.1,3.4c0,2.9,1.8,3.3,4.1,3.3c11.7,0,23.4,0,35.2,0
			c1.6,0,3.3-0.1,4.3,1.7c1.5,2.6-0.1,5.2-3.4,5.2c-7.2,0.1-14.3,0-21.5,0C72.3,37,66.3,37,60.2,37z"/>
	</g>
</g>
</svg>
