<?xml version="1.0" encoding="utf-8"?>
<!-- Generator: Adobe Illustrator 22.0.1, SVG Export Plug-In . SVG Version: 6.00 Build 0)  -->
<svg version="1.1" id="Layer_1" xmlns="http://www.w3.org/2000/svg" xmlns:xlink="http://www.w3.org/1999/xlink" x="0px" y="0px"
	 viewBox="0 0 105 130" style="enable-background:new 0 0 105 130;" xml:space="preserve">
<g id="PlQ4aY.tif">
	<g>
		<path d="M104.5,96.6c-1.7,0.5-3.6,0.7-5.3,1.1c-2.2,0.4-4.3,0.8-6.5,1.2C91.9,99,91.5,99,91.4,98c-0.2-1.6-0.6-3.2-0.8-4.8
			c-0.1-0.6-0.3-0.9-1.1-0.7c-1.9,0.4-3.8,0.7-5.7,1.1c-0.6,0.1-0.9,0-1-0.7c-0.3-1.9-0.7-3.7-1-5.5c-0.2-1.1-0.2-1.1-1.3-0.9
			c-1.7,0.3-3.5,0.6-5.2,1c-0.8,0.2-1.2,0.1-1.4-0.9c-0.3-1.8-0.7-3.6-1-5.5c-0.1-0.7-0.4-0.9-1.1-0.8c-1.8,0.4-3.6,0.6-5.4,1
			c-0.7,0.2-1.3,0-1.9-0.4c-2.9-2-5.9-4-8.8-6.1c-0.7-0.5-1.3-0.6-2.1-0.3c-10.4,3.9-21.8-2-24.7-12.8c-2.3-8.7,2.1-18.1,10.3-21.8
			c0.1,0,0.2-0.1,0.3-0.1c0.3-0.1,0.5-0.4,0.8-0.1c0.2,0.2,0.1,0.5,0,0.8c-0.6,3.4-2.1,6.3-4.5,8.8c-2.6,2.7-1.7,7.1,1.7,8.6
			c2.1,0.9,4.1,0.6,5.7-1c4.2-4,6.7-9,7.6-14.7c0.1-0.8,0.2-1.6,0.3-2.4c0-0.8,0.3-0.9,1-0.7c5,1.5,8.7,4.5,11.2,9
			c1.6,2.8,2.3,5.9,2.3,9.1c0,0.7,0.2,1.1,0.8,1.5c11.5,7.9,23,15.9,34.5,23.8c0.7,0.5,0.9,1,1,1.7c0.7,4,1.5,8,2.2,12
			C104.5,96.4,104.5,96.5,104.5,96.6z"/>
		<path d="M57.3,120.2c-3.1-1.2-6.3-2.4-9.4-3.5c-0.9-0.3-1-0.7-0.7-1.5c0.5-1.2,0.9-2.5,1.4-3.7c0.3-0.7,0.1-1-0.6-1.2
			c-1.5-0.5-3-1.1-4.6-1.6c-0.6-0.2-0.8-0.5-0.6-1.2c0.6-1.5,1.1-3,1.7-4.5c0.3-0.7,0.2-1-0.5-1.2c-1.4-0.5-2.9-1-4.3-1.6
			c-1.1-0.4-1.1-0.4-0.7-1.5c0.5-1.4,1-2.9,1.6-4.3c0.3-0.7,0.1-1-0.6-1.2c-1.4-0.5-2.9-1.1-4.3-1.5c-0.7-0.2-1.1-0.7-1.4-1.3
			c-1.3-2.8-2.6-5.6-3.9-8.5c-0.3-0.6-0.6-0.9-1.3-1c-7.5-1.2-13.1-7.5-13.7-15.2c-0.5-6.7,3.3-13.1,9.3-16c0.4-0.2,1-0.7,1.4-0.4
			c0.4,0.3-0.1,0.9-0.2,1.4c-3.9,13,4.7,26.4,18.4,28.3c1.1,0.1,2.2,0.2,3.2,0.2c0.5,0,0.7,0.1,0.9,0.6c4.4,9.5,8.8,19,13.2,28.4
			c0.2,0.5,0.2,0.9,0,1.3c-1.3,3.5-2.6,7.1-3.9,10.6C57.6,120.2,57.5,120.2,57.3,120.2z"/>
		<path d="M27.3,14.5c2.3,0.4,4.5,0.9,6.6,1.8c8.1,3.7,12.8,10,13.9,18.8c0.9,7.1-1.3,13.4-6.1,18.7c-0.1,0.1-0.2,0.3-0.4,0.4
			c-0.9,0.8-2,0.9-2.8,0.1c-0.8-0.8-0.8-1.9,0.1-2.7c1.6-1.7,3-3.6,3.9-5.8c5.1-11.8-1.9-25.4-15-27.3C17,16.9,7.4,23.7,5.4,34.1
			C3.9,42,7.1,49.5,13.6,54c0.8,0.5,1,0.9,0.5,1.7c-0.3,0.4-0.4,0.9-0.6,1.4c-0.5,1.1-0.5,1.1-1.5,0.4c-2.9-1.9-5.3-4.2-7.1-7.1
			c-2-3.1-3.2-6.5-3.5-10.2c0-0.1-0.1-0.3-0.1-0.4c0-1.2,0-2.5,0-3.7c0-0.2,0.1-0.3,0.1-0.5c1-8.3,5.2-14.4,12.5-18.4
			c2.6-1.4,5.3-2.1,8.2-2.6C23.8,14.5,25.6,14.5,27.3,14.5z"/>
	</g>
</g>
</svg>
