<?xml version="1.0" encoding="utf-8"?>
<!-- Generator: Adobe Illustrator 22.0.1, SVG Export Plug-In . SVG Version: 6.00 Build 0)  -->
<svg version="1.1" id="Capa_1" xmlns="http://www.w3.org/2000/svg" xmlns:xlink="http://www.w3.org/1999/xlink" x="0px" y="0px"
	 viewBox="0 0 175.9 42.5" style="enable-background:new 0 0 175.9 42.5;" xml:space="preserve">
<style type="text/css">
	.st0{fill:#FFFFFF;}
	.st1{fill:#72A538;}
	.st2{fill:#31408C;}
	.st3{fill:#C4142D;}
</style>
<g>
	<path d="M174.2,14c0-0.8-0.5-1-1.3-1h-1.3v3.6h0.7V15h0.4l0.9,1.5h0.7l-1-1.6C173.8,14.9,174.2,14.6,174.2,14 M172.2,14.5v-1h0.6
		c0.3,0,0.7,0.1,0.7,0.5c0,0.5-0.3,0.5-0.7,0.5H172.2z M88.5,24.3c0,1.5-0.5,3.8-2.6,3.8c-1.9,0-1.9-1.9-1.9-3.3v-6.1h-3v7.2
		c0,2.6,1.2,4.5,3.9,4.5c1.6,0,2.8-0.7,3.7-1.8h0v1.6h2.8V18.7h-3V24.3z M79.2,24.7v-1.5c0-3.4-1.4-4.8-4.9-4.8
		c-1.3,0-2.8,0.3-4,0.9l0.1,2.5c1-0.7,2.2-1.2,3.5-1.2c1.7,0,2.6,0.6,2.6,2.5h-1.6c-1.2,0-2.7,0.1-3.8,0.7c-1.1,0.6-1.9,1.5-1.9,3.3
		c0,2.2,2,3.4,4,3.4c1.3,0,2.8-0.7,3.5-2h0c0,0.4,0,1.1,0.1,1.7h2.6c-0.1-0.9-0.1-1.7-0.1-2.5C79.2,26.7,79.2,25.9,79.2,24.7
		 M75.8,27.2c-0.5,0.6-1.2,1-2.1,1c-1.1,0-1.9-0.4-1.9-1.4c0-1.7,2-2,3.3-2h1.3C76.5,25.8,76.3,26.6,75.8,27.2 M172.8,11.6
		c-1.7,0-3.1,1.4-3.1,3.2c0,1.7,1.4,3.2,3.1,3.2c1.7,0,3.1-1.4,3.1-3.2C175.9,13,174.5,11.6,172.8,11.6 M172.8,17.3
		c-1.3,0-2.4-1.1-2.4-2.5c0-1.5,1.1-2.5,2.4-2.5c1.3,0,2.4,1.1,2.4,2.5C175.1,16.2,174.1,17.3,172.8,17.3 M98.8,28.1
		c-2.1,0-3.1-1.6-3.1-3.7c0-2.2,1.2-3.6,3-3.6c0.9,0,1.5,0.2,2,0.4l0.3-2.3c-0.8-0.2-1.7-0.4-2.9-0.4c-3.6,0-5.5,2.6-5.5,5.9
		c0,3.5,1.9,6,5.6,6c1.2,0,2.1-0.1,3-0.4l-0.1-2.5C100.6,27.8,99.7,28.1,98.8,28.1 M159.7,14.6h-1.8l-1.9,3h1L159.7,14.6z
		 M52.1,14.7l-6,15.4h3.2l1.4-3.5l5.4-2.4h-4.5l2.2-6.4h0.1l2.2,6.4l2.2,6h3.4l-6.1-15.4H52.1z M69.1,18.6c-0.3-0.1-0.6-0.1-0.9-0.1
		c-1.8,0-3,1.8-3.1,2.9h0v-2.6h-2.6v11.4h3V26c0-1.6,0-4.6,2.4-4.6c0.5,0,1.1,0.1,1.3,0.2V18.6z M145.1,30.1h1.4V13.4h-1.4V30.1z
		 M149.3,30.1h1.4V13.4h-1.4V30.1z M141,30.1h1.4V18.8H141V30.1z M168.8,18.5c-2.4,0-3.2,1.3-3.7,2.3h0v-2h-1.4
		c0.1,0.9,0.1,1.8,0.1,2.7v8.7h1.4v-6.3c0-1.9,0.8-4.2,3.4-4.2c1.9,0,2.7,1.4,2.7,3.5v6.9h1.4v-7.3
		C172.7,20.4,171.7,18.5,168.8,18.5 M107.3,18.5c-3.4,0-6,2.3-6,6c0,3.3,2.2,5.9,6,5.9c3.8,0,6-2.6,6-5.9
		C113.3,20.8,110.7,18.5,107.3,18.5 M107.3,28.1c-2.3,0-2.9-2.1-2.9-3.9c0-1.7,0.9-3.4,2.9-3.4c2,0,2.9,1.6,2.9,3.4
		C110.2,26.1,109.6,28.1,107.3,28.1 M161.3,22.7c0-3-1.2-4.2-4-4.2c-1,0-2.5,0.4-3.3,0.8v1.4c1-0.7,2.2-0.9,3.3-0.9
		c1.9,0,2.6,1,2.6,2.9v0.6h-0.3c-2.9,0-7,0.2-7,4c0,1,0.5,3.2,3.7,3.2c1.4,0,3-0.7,3.6-2.1h0v1.8h1.4c-0.1-0.8-0.1-1.5-0.1-2.4V22.7
		z M159.9,25.1c0,1.2-0.1,4.1-3.4,4.1c-1.3,0-2.4-0.6-2.4-2.1c0-2.5,2.9-2.7,5.3-2.7h0.4V25.1z M122.6,15.6c1.1,0,2.5,0.2,3.5,0.7
		l0.1-1.4c-0.8-0.4-2.7-0.6-3.6-0.6c-4.8,0-7.9,3.3-7.9,8.1c0,4.8,2.9,8.1,7.9,8.1c1,0,2.7-0.2,3.6-0.7l-0.1-1.3
		c-0.9,0.5-2.5,0.7-3.5,0.7c-4.1,0-6.3-2.8-6.3-6.7C116.3,18.5,118.6,15.6,122.6,15.6 M134.3,18.5c-1.7,0-2.9,0.9-3.5,2.2h0v-7.3
		h-1.4v16.7h1.4v-6.1c0-2,0.9-4.4,3.4-4.4c2.3,0,2.7,1.7,2.7,3.7v6.8h1.4v-6.8C138.2,20.5,137.4,18.5,134.3,18.5 M142.4,14.6h-1.4
		v1.9h1.4V14.6z"/>
	<g>
		<path class="st0" d="M42.5,21.2c0,11.7-9.5,21.2-21.2,21.2C9.5,42.5,0,33,0,21.2C0,9.5,9.5,0,21.2,0C33,0,42.5,9.5,42.5,21.2"/>
		<path class="st1" d="M40.6,23.4c-0.3,0-0.6,0-0.9,0c-7.9,0-14.3,6.4-14.3,14.3c0,0.9,0.1,1.7,0.2,2.6
			C33.6,38.4,39.7,31.7,40.6,23.4"/>
		<path class="st1" d="M3,23.4c-0.4,0-0.8,0-1.1,0C2.8,31.8,9,38.5,17,40.3c0.2-0.8,0.2-1.7,0.2-2.6C17.2,29.8,10.8,23.4,3,23.4"/>
		<path class="st2" d="M3,21.3c1.6,0,3.1,0.2,4.6,0.6C8,14.8,14,9.2,21.2,9.2c7.3,0,13.2,5.7,13.7,12.8c1.5-0.5,3.1-0.7,4.7-0.7
			c0.4,0,0.7,0,1.1,0c0,0,0-0.1,0-0.1c0-10.8-8.7-19.5-19.5-19.5c-10.8,0-19.5,8.7-19.5,19.5c0,0,0,0.1,0,0.1
			C2.1,21.3,2.5,21.3,3,21.3"/>
		<path class="st3" d="M23.3,37.7c0-6.6,3.9-12.3,9.6-14.9c-0.1-6.4-5.3-11.5-11.7-11.5c-6.4,0-11.5,5.1-11.7,11.4
			c5.7,2.5,9.8,8.3,9.8,15c0,1-0.1,2-0.3,3c0.7,0.1,1.4,0.1,2.2,0.1c0.8,0,1.6,0,2.3-0.1C23.4,39.7,23.3,38.7,23.3,37.7"/>
	</g>
</g>
</svg>
